<mxfile host="app.diagrams.net" agent="Mozilla/5.0 (Windows NT 10.0; Win64; x64) AppleWebKit/537.36 (KHTML, like Gecko) Chrome/139.0.0.0 Safari/537.36 Edg/139.0.0.0" version="28.1.0">
  <diagram id="f106602c-feb2-e66a-4537-3a34d633f6aa" name="Page-1">
    <mxGraphModel dx="1563" dy="683" grid="1" gridSize="10" guides="1" tooltips="1" connect="1" arrows="1" fold="1" page="1" pageScale="1" pageWidth="1169" pageHeight="827" background="none" math="0" shadow="0">
      <root>
        <mxCell id="0" />
        <mxCell id="1" parent="0" />
        <mxCell id="lrcbfFie5i2wsSJ-dCNl-765" value="&lt;div&gt;&lt;font style=&quot;color: rgb(102, 102, 102);&quot;&gt;Citizens&lt;/font&gt;&lt;/div&gt;" style="ellipse;shape=cloud;whiteSpace=wrap;html=1;fillColor=#dae8fc;strokeColor=#6c8ebf;" parent="1" vertex="1">
          <mxGeometry x="60" y="320" width="160" height="140" as="geometry" />
        </mxCell>
        <mxCell id="lrcbfFie5i2wsSJ-dCNl-764" value="&lt;div&gt;&lt;br&gt;&lt;/div&gt;&lt;div&gt;&lt;br&gt;&lt;/div&gt;&lt;div&gt;&lt;br&gt;&lt;/div&gt;&lt;div&gt;&lt;br&gt;&lt;/div&gt;&lt;div&gt;&lt;br&gt;&lt;/div&gt;&lt;div&gt;&lt;br&gt;&lt;/div&gt;&lt;div&gt;&lt;br&gt;&lt;/div&gt;&lt;div&gt;&lt;br&gt;&lt;/div&gt;&lt;div&gt;&lt;br&gt;&lt;/div&gt;&lt;div&gt;&lt;b&gt;SERPRO&amp;nbsp;&lt;/b&gt;Data Environment&lt;/div&gt;" style="shadow=0;fontSize=14;align=left;spacing=10;9E9E9E;verticalAlign=top;spacingTop=-4;fontStyle=0;spacingLeft=40;html=1;container=0;dashed=1;strokeWidth=1;" parent="1" vertex="1">
          <mxGeometry x="230" y="84" width="660" height="184" as="geometry" />
        </mxCell>
        <mxCell id="lrcbfFie5i2wsSJ-dCNl-763" style="edgeStyle=orthogonalEdgeStyle;rounded=0;orthogonalLoop=1;jettySize=auto;html=1;entryX=0.875;entryY=0.5;entryDx=0;entryDy=0;strokeColor=#4284F3;strokeWidth=2;endArrow=blockThin;endFill=1;entryPerimeter=0;" parent="1" source="14" edge="1" target="lrcbfFie5i2wsSJ-dCNl-765">
          <mxGeometry relative="1" as="geometry">
            <mxPoint x="338" y="390" as="targetPoint" />
          </mxGeometry>
        </mxCell>
        <mxCell id="14" value="&lt;b&gt;SERPRO&amp;nbsp;&lt;/b&gt;Cloud Platform" style="fillColor=#CCCCCC;strokeColor=#6c8ebf;shadow=0;fontSize=14;align=left;spacing=10;9E9E9E;verticalAlign=top;spacingTop=-4;fontStyle=0;spacingLeft=40;html=1;container=0;dashed=1;opacity=60;" parent="1" vertex="1">
          <mxGeometry x="350" y="320" width="543" height="370" as="geometry" />
        </mxCell>
        <mxCell id="lrcbfFie5i2wsSJ-dCNl-758" style="edgeStyle=orthogonalEdgeStyle;rounded=0;orthogonalLoop=1;jettySize=auto;html=1;strokeWidth=2;strokeColor=#4284F3;endArrow=blockThin;endFill=1;entryX=0.75;entryY=0;entryDx=0;entryDy=0;" parent="1" source="lrcbfFie5i2wsSJ-dCNl-737" target="bN5QILnUEAshqW3xWmmT-750" edge="1">
          <mxGeometry relative="1" as="geometry">
            <mxPoint x="810" y="310" as="targetPoint" />
          </mxGeometry>
        </mxCell>
        <mxCell id="lrcbfFie5i2wsSJ-dCNl-737" value="&lt;span&gt;&lt;font style=&quot;color: rgb(102, 102, 102);&quot;&gt;API&#39;s Database&lt;/font&gt;&lt;/span&gt;" style="rounded=1;absoluteArcSize=1;arcSize=2;html=1;strokeColor=#d6b656;shadow=0;dashed=0;strokeColor=none;fontSize=12;align=left;verticalAlign=top;spacing=10;spacingTop=-4;fillColor=#fff2cc;" parent="1" vertex="1">
          <mxGeometry x="730" y="90" width="100" height="100" as="geometry" />
        </mxCell>
        <mxCell id="lrcbfFie5i2wsSJ-dCNl-733" value="" style="edgeStyle=orthogonalEdgeStyle;rounded=0;orthogonalLoop=1;jettySize=auto;html=1;strokeColor=#4284F3;strokeWidth=2;endArrow=blockThin;endFill=1;entryX=0;entryY=0.5;entryDx=0;entryDy=0;" parent="1" source="lrcbfFie5i2wsSJ-dCNl-731" target="711" edge="1">
          <mxGeometry relative="1" as="geometry" />
        </mxCell>
        <mxCell id="lrcbfFie5i2wsSJ-dCNl-731" value="&lt;font color=&quot;#666666&quot;&gt;Qvd Files&lt;/font&gt;" style="rounded=1;absoluteArcSize=1;arcSize=2;html=1;strokeColor=#d6b656;shadow=0;dashed=0;strokeColor=none;fontSize=12;align=left;verticalAlign=top;spacing=10;spacingTop=-4;fillColor=#fff2cc;" parent="1" vertex="1">
          <mxGeometry x="280" y="90" width="90" height="100" as="geometry" />
        </mxCell>
        <mxCell id="lrcbfFie5i2wsSJ-dCNl-738" style="edgeStyle=orthogonalEdgeStyle;rounded=0;orthogonalLoop=1;jettySize=auto;html=1;entryX=0;entryY=0.5;entryDx=0;entryDy=0;strokeColor=#4284F3;strokeWidth=2;endArrow=blockThin;endFill=1;" parent="1" source="711" target="lrcbfFie5i2wsSJ-dCNl-737" edge="1">
          <mxGeometry relative="1" as="geometry" />
        </mxCell>
        <mxCell id="711" value="&lt;font color=&quot;#000066&quot;&gt;&amp;nbsp; &amp;nbsp; &amp;nbsp; &amp;nbsp; &amp;nbsp;Data Pipeline&lt;/font&gt;" style="rounded=1;absoluteArcSize=1;arcSize=2;html=1;strokeColor=none;gradientColor=none;shadow=0;dashed=0;strokeColor=none;fontSize=12;fontColor=#9E9E9E;align=left;verticalAlign=top;spacing=10;spacingTop=-4;fillColor=#E1F5FE;" parent="1" vertex="1">
          <mxGeometry x="470" y="161" width="180" height="100" as="geometry" />
        </mxCell>
        <mxCell id="2" value="Transferegov: Design de projeto da infraestrutura das aplicações de API" style="fillColor=#4DA1F5;strokeColor=none;shadow=1;gradientColor=none;fontSize=14;align=left;spacingLeft=50;fontColor=#ffffff;html=1;" parent="1" vertex="1">
          <mxGeometry x="230" y="40" width="660" height="40" as="geometry" />
        </mxCell>
        <mxCell id="693" value="" style="strokeColor=#dddddd;fillColor=#ffffff;shadow=1;strokeWidth=1;rounded=1;absoluteArcSize=1;arcSize=2;fontSize=10;fontColor=#9E9E9E;align=center;html=1;container=0;" parent="1" vertex="1">
          <mxGeometry x="129" y="405" width="40" height="40" as="geometry" />
        </mxCell>
        <mxCell id="bN5QILnUEAshqW3xWmmT-750" value="" style="strokeColor=#82b366;shadow=1;strokeWidth=1;rounded=1;absoluteArcSize=1;arcSize=20;fillColor=#d5e8d4;movable=1;resizable=1;rotatable=1;deletable=1;editable=1;locked=0;connectable=1;container=0;" parent="1" vertex="1">
          <mxGeometry x="410" y="370" width="464" height="300" as="geometry" />
        </mxCell>
        <mxCell id="lrcbfFie5i2wsSJ-dCNl-726" value="" style="points=[];aspect=fixed;html=1;align=center;shadow=0;dashed=0;fillColor=#FF6A00;strokeColor=none;shape=mxgraph.alibaba_cloud.oos_operation_orchestration_service;rotation=-90;" parent="1" vertex="1">
          <mxGeometry x="540.52" y="192" width="43.27" height="43.53" as="geometry" />
        </mxCell>
        <mxCell id="lrcbfFie5i2wsSJ-dCNl-727" value="" style="image;aspect=fixed;html=1;points=[];align=center;fontSize=12;image=img/lib/azure2/databases/Azure_Database_PostgreSQL_Server.svg;" parent="1" vertex="1">
          <mxGeometry x="756" y="117.96499999999997" width="48" height="64" as="geometry" />
        </mxCell>
        <mxCell id="lrcbfFie5i2wsSJ-dCNl-751" value="" style="points=[];aspect=fixed;html=1;align=center;shadow=0;dashed=0;fillColor=#FF6A00;strokeColor=none;shape=mxgraph.alibaba_cloud.oos_operation_orchestration_service;rotation=-90;" parent="1" vertex="1">
          <mxGeometry x="510.25" y="192" width="43.27" height="43.53" as="geometry" />
        </mxCell>
        <mxCell id="lrcbfFie5i2wsSJ-dCNl-760" value="" style="image;sketch=0;aspect=fixed;html=1;points=[];align=center;fontSize=12;image=img/lib/mscae/Person.svg;" parent="1" vertex="1">
          <mxGeometry x="100" y="380" width="14.8" height="20" as="geometry" />
        </mxCell>
        <mxCell id="694" value="" style="dashed=0;connectable=0;html=1;fillColor=#5184F3;strokeColor=none;shape=mxgraph.gcp2.google_analytics;part=1;labelPosition=right;verticalLabelPosition=middle;align=left;verticalAlign=middle;spacingLeft=5;fontColor=#999999;fontSize=12;" parent="1" vertex="1">
          <mxGeometry x="133" y="411" width="32" height="32" as="geometry">
            <mxPoint x="5" y="7" as="offset" />
          </mxGeometry>
        </mxCell>
        <mxCell id="eOLP80NCPnnx1F5VQtHF-711" value="" style="strokeColor=#dddddd;shadow=1;strokeWidth=1;rounded=1;absoluteArcSize=1;arcSize=2;" vertex="1" parent="1">
          <mxGeometry x="736.08" y="540" width="121.69811320754718" height="55.054945054945044" as="geometry" />
        </mxCell>
        <mxCell id="eOLP80NCPnnx1F5VQtHF-712" value="API App&lt;div&gt;Integacao&lt;/div&gt;" style="editableCssRules=.*;html=1;fontColor=#999999;shape=image;verticalLabelPosition=middle;verticalAlign=middle;labelPosition=right;align=left;spacingLeft=20;part=1;points=[];imageAspect=0;image=data:image/svg+xml,PHN2ZyB4bWxucz0iaHR0cDovL3d3dy53My5vcmcvMjAwMC9zdmciIHhtbG5zOnY9Imh0dHBzOi8vdmVjdGEuaW8vbmFubyIgd2lkdGg9IjIwIiBoZWlnaHQ9IjIwIiB2aWV3Qm94PSIwIDAgMjAgMjAiPiYjeGE7CTxzdHlsZSB0eXBlPSJ0ZXh0L2NzcyI+JiN4YTsJLnN0MHtmaWxsOiM0Mjg1ZjQ7fSYjeGE7CTwvc3R5bGU+JiN4YTsJPHBhdGggY2xhc3M9InN0MCIgZD0iTTEwIDBhMTAgMTAgMCAxIDAgMTAgMTBoMEExMCAxMCAwIDAgMCAxMCAwem0wIDE4YTggOCAwIDAgMS00LjE4LTEuMThsMy41OC0yLjA3aDB2LTQuNUw1LjUxIDh2NC41MmwyLjc1IDEuNTktMy40NiAyQTggOCAwIDAgMSA2LjA4IDN2NGgwTDEwIDkuMjggMTMuOSA3IDEwIDQuNzcgNy4yNCA2LjM2VjIuNDdhOCA4IDAgMCAxIDEwLjMxIDQuNyA4LjEgOC4xIDAgMCAxIC41MSAyLjgzdi4wN0wxNC40NiA4aDBsLTMuOSAyLjI2djQuNTFsMy45LTIuMjVWOS4zNGwzLjQ1IDJBOCA4IDAgMCAxIDEwIDE4eiIvPiYjeGE7PC9zdmc+;" vertex="1" parent="eOLP80NCPnnx1F5VQtHF-711">
          <mxGeometry width="30" height="30" relative="1" as="geometry">
            <mxPoint x="15" y="15" as="offset" />
          </mxGeometry>
        </mxCell>
        <mxCell id="bN5QILnUEAshqW3xWmmT-751" value="Cloud Servers" style="editableCssRules=.*;html=1;fontColor=#999999;shape=image;verticalLabelPosition=middle;verticalAlign=middle;labelPosition=right;align=left;spacingLeft=5;part=1;points=[];imageAspect=0;image=data:image/svg+xml,PHN2ZyB4bWxucz0iaHR0cDovL3d3dy53My5vcmcvMjAwMC9zdmciIHhtbG5zOnY9Imh0dHBzOi8vdmVjdGEuaW8vbmFubyIgd2lkdGg9IjIwIiBoZWlnaHQ9IjE2IiB2aWV3Qm94PSIwIDAgMjAgMTYiPiYjeGE7CTxzdHlsZSB0eXBlPSJ0ZXh0L2NzcyI+JiN4YTsJLnN0MHtmaWxsOiM0Mjg1ZjQ7fSYjeGE7CS5zdDF7ZmlsbDojNjY5ZGY2O30mI3hhOwkuc3Qye2ZpbGw6I2FlY2JmYTt9JiN4YTsJLnN0M3tmaWxsOiNmZmY7fSYjeGE7CTwvc3R5bGU+JiN4YTsJPHBhdGggY2xhc3M9InN0MiIgZD0iTTAgMGgyMHY3SDB6Ii8+JiN4YTsJPHBhdGggY2xhc3M9InN0MSIgZD0iTTE4IDBoMnY3aC0yeiIvPiYjeGE7CTxwYXRoIGNsYXNzPSJzdDAiIGQ9Ik0xOCA3bDItN2gtMnoiLz4mI3hhOwk8cGF0aCBjbGFzcz0ic3QxIiBkPSJNMCAwaDJ2N0gweiIvPiYjeGE7CTxnIGNsYXNzPSJzdDMiPiYjeGE7CQk8cGF0aCBkPSJNNCAzaDZ2MUg0eiIvPiYjeGE7CQk8cmVjdCB4PSIxMyIgeT0iMiIgd2lkdGg9IjMiIGhlaWdodD0iMyIgcng9IjEuNSIvPiYjeGE7CTwvZz4mI3hhOwk8cGF0aCBjbGFzcz0ic3QyIiBkPSJNMCA5aDIwdjdIMHoiLz4mI3hhOwk8cGF0aCBjbGFzcz0ic3QxIiBkPSJNMTggOWgydjdoLTJ6Ii8+JiN4YTsJPHBhdGggY2xhc3M9InN0MCIgZD0iTTE4IDE2bDItN2gtMnoiLz4mI3hhOwk8cGF0aCBjbGFzcz0ic3QxIiBkPSJNMCA5aDJ2N0gweiIvPiYjeGE7CTxnIGNsYXNzPSJzdDMiPiYjeGE7CQk8cGF0aCBkPSJNNCAxMmg2djFINHoiLz4mI3hhOwkJPHJlY3QgeD0iMTMiIHk9IjExIiB3aWR0aD0iMyIgaGVpZ2h0PSIzIiByeD0iMS41Ii8+JiN4YTsJPC9nPiYjeGE7PC9zdmc+;" parent="1" vertex="1">
          <mxGeometry x="440" y="381" width="30" height="24" as="geometry">
            <mxPoint x="15" y="18" as="offset" />
          </mxGeometry>
        </mxCell>
        <mxCell id="lrcbfFie5i2wsSJ-dCNl-743" value="" style="strokeColor=#dddddd;shadow=1;strokeWidth=1;rounded=1;absoluteArcSize=1;arcSize=2;" parent="1" vertex="1">
          <mxGeometry x="736.0754716981132" y="390.1868131868132" width="121.69811320754718" height="55.054945054945044" as="geometry" />
        </mxCell>
        <mxCell id="lrcbfFie5i2wsSJ-dCNl-744" value="API App&lt;div&gt;TED&lt;/div&gt;" style="editableCssRules=.*;html=1;fontColor=#999999;shape=image;verticalLabelPosition=middle;verticalAlign=middle;labelPosition=right;align=left;spacingLeft=20;part=1;points=[];imageAspect=0;image=data:image/svg+xml,PHN2ZyB4bWxucz0iaHR0cDovL3d3dy53My5vcmcvMjAwMC9zdmciIHhtbG5zOnY9Imh0dHBzOi8vdmVjdGEuaW8vbmFubyIgd2lkdGg9IjIwIiBoZWlnaHQ9IjIwIiB2aWV3Qm94PSIwIDAgMjAgMjAiPiYjeGE7CTxzdHlsZSB0eXBlPSJ0ZXh0L2NzcyI+JiN4YTsJLnN0MHtmaWxsOiM0Mjg1ZjQ7fSYjeGE7CTwvc3R5bGU+JiN4YTsJPHBhdGggY2xhc3M9InN0MCIgZD0iTTEwIDBhMTAgMTAgMCAxIDAgMTAgMTBoMEExMCAxMCAwIDAgMCAxMCAwem0wIDE4YTggOCAwIDAgMS00LjE4LTEuMThsMy41OC0yLjA3aDB2LTQuNUw1LjUxIDh2NC41MmwyLjc1IDEuNTktMy40NiAyQTggOCAwIDAgMSA2LjA4IDN2NGgwTDEwIDkuMjggMTMuOSA3IDEwIDQuNzcgNy4yNCA2LjM2VjIuNDdhOCA4IDAgMCAxIDEwLjMxIDQuNyA4LjEgOC4xIDAgMCAxIC41MSAyLjgzdi4wN0wxNC40NiA4aDBsLTMuOSAyLjI2djQuNTFsMy45LTIuMjVWOS4zNGwzLjQ1IDJBOCA4IDAgMCAxIDEwIDE4eiIvPiYjeGE7PC9zdmc+;" parent="lrcbfFie5i2wsSJ-dCNl-743" vertex="1">
          <mxGeometry width="30" height="30" relative="1" as="geometry">
            <mxPoint x="15" y="15" as="offset" />
          </mxGeometry>
        </mxCell>
        <mxCell id="lrcbfFie5i2wsSJ-dCNl-741" value="" style="strokeColor=#dddddd;shadow=1;strokeWidth=1;rounded=1;absoluteArcSize=1;arcSize=2;" parent="1" vertex="1">
          <mxGeometry x="598.1509433962265" y="390.1868131868132" width="121.69811320754718" height="55.054945054945044" as="geometry" />
        </mxCell>
        <mxCell id="lrcbfFie5i2wsSJ-dCNl-742" value="API App&lt;div&gt;Especiais&lt;/div&gt;" style="editableCssRules=.*;html=1;fontColor=#999999;shape=image;verticalLabelPosition=middle;verticalAlign=middle;labelPosition=right;align=left;spacingLeft=20;part=1;points=[];imageAspect=0;image=data:image/svg+xml,PHN2ZyB4bWxucz0iaHR0cDovL3d3dy53My5vcmcvMjAwMC9zdmciIHhtbG5zOnY9Imh0dHBzOi8vdmVjdGEuaW8vbmFubyIgd2lkdGg9IjIwIiBoZWlnaHQ9IjIwIiB2aWV3Qm94PSIwIDAgMjAgMjAiPiYjeGE7CTxzdHlsZSB0eXBlPSJ0ZXh0L2NzcyI+JiN4YTsJLnN0MHtmaWxsOiM0Mjg1ZjQ7fSYjeGE7CTwvc3R5bGU+JiN4YTsJPHBhdGggY2xhc3M9InN0MCIgZD0iTTEwIDBhMTAgMTAgMCAxIDAgMTAgMTBoMEExMCAxMCAwIDAgMCAxMCAwem0wIDE4YTggOCAwIDAgMS00LjE4LTEuMThsMy41OC0yLjA3aDB2LTQuNUw1LjUxIDh2NC41MmwyLjc1IDEuNTktMy40NiAyQTggOCAwIDAgMSA2LjA4IDN2NGgwTDEwIDkuMjggMTMuOSA3IDEwIDQuNzcgNy4yNCA2LjM2VjIuNDdhOCA4IDAgMCAxIDEwLjMxIDQuNyA4LjEgOC4xIDAgMCAxIC41MSAyLjgzdi4wN0wxNC40NiA4aDBsLTMuOSAyLjI2djQuNTFsMy45LTIuMjVWOS4zNGwzLjQ1IDJBOCA4IDAgMCAxIDEwIDE4eiIvPiYjeGE7PC9zdmc+;" parent="lrcbfFie5i2wsSJ-dCNl-741" vertex="1">
          <mxGeometry width="30" height="30" relative="1" as="geometry">
            <mxPoint x="15" y="15" as="offset" />
          </mxGeometry>
        </mxCell>
        <mxCell id="lrcbfFie5i2wsSJ-dCNl-747" value="" style="strokeColor=#dddddd;shadow=1;strokeWidth=1;rounded=1;absoluteArcSize=1;arcSize=2;" parent="1" vertex="1">
          <mxGeometry x="736.0754716981132" y="463.5934065934066" width="121.69811320754718" height="55.054945054945044" as="geometry" />
        </mxCell>
        <mxCell id="lrcbfFie5i2wsSJ-dCNl-748" value="API App&lt;div&gt;ObrasGov&lt;/div&gt;" style="editableCssRules=.*;html=1;fontColor=#999999;shape=image;verticalLabelPosition=middle;verticalAlign=middle;labelPosition=right;align=left;spacingLeft=20;part=1;points=[];imageAspect=0;image=data:image/svg+xml,PHN2ZyB4bWxucz0iaHR0cDovL3d3dy53My5vcmcvMjAwMC9zdmciIHhtbG5zOnY9Imh0dHBzOi8vdmVjdGEuaW8vbmFubyIgd2lkdGg9IjIwIiBoZWlnaHQ9IjIwIiB2aWV3Qm94PSIwIDAgMjAgMjAiPiYjeGE7CTxzdHlsZSB0eXBlPSJ0ZXh0L2NzcyI+JiN4YTsJLnN0MHtmaWxsOiM0Mjg1ZjQ7fSYjeGE7CTwvc3R5bGU+JiN4YTsJPHBhdGggY2xhc3M9InN0MCIgZD0iTTEwIDBhMTAgMTAgMCAxIDAgMTAgMTBoMEExMCAxMCAwIDAgMCAxMCAwem0wIDE4YTggOCAwIDAgMS00LjE4LTEuMThsMy41OC0yLjA3aDB2LTQuNUw1LjUxIDh2NC41MmwyLjc1IDEuNTktMy40NiAyQTggOCAwIDAgMSA2LjA4IDN2NGgwTDEwIDkuMjggMTMuOSA3IDEwIDQuNzcgNy4yNCA2LjM2VjIuNDdhOCA4IDAgMCAxIDEwLjMxIDQuNyA4LjEgOC4xIDAgMCAxIC41MSAyLjgzdi4wN0wxNC40NiA4aDBsLTMuOSAyLjI2djQuNTFsMy45LTIuMjVWOS4zNGwzLjQ1IDJBOCA4IDAgMCAxIDEwIDE4eiIvPiYjeGE7PC9zdmc+;" parent="lrcbfFie5i2wsSJ-dCNl-747" vertex="1">
          <mxGeometry width="30" height="30" relative="1" as="geometry">
            <mxPoint x="15" y="15" as="offset" />
          </mxGeometry>
        </mxCell>
        <mxCell id="lrcbfFie5i2wsSJ-dCNl-745" value="" style="strokeColor=#dddddd;shadow=1;strokeWidth=1;rounded=1;absoluteArcSize=1;arcSize=2;" parent="1" vertex="1">
          <mxGeometry x="598.1509433962265" y="463.5934065934066" width="121.69811320754718" height="55.054945054945044" as="geometry" />
        </mxCell>
        <mxCell id="lrcbfFie5i2wsSJ-dCNl-746" value="API App&lt;div&gt;FaF&lt;/div&gt;" style="editableCssRules=.*;html=1;fontColor=#999999;shape=image;verticalLabelPosition=middle;verticalAlign=middle;labelPosition=right;align=left;spacingLeft=20;part=1;points=[];imageAspect=0;image=data:image/svg+xml,PHN2ZyB4bWxucz0iaHR0cDovL3d3dy53My5vcmcvMjAwMC9zdmciIHhtbG5zOnY9Imh0dHBzOi8vdmVjdGEuaW8vbmFubyIgd2lkdGg9IjIwIiBoZWlnaHQ9IjIwIiB2aWV3Qm94PSIwIDAgMjAgMjAiPiYjeGE7CTxzdHlsZSB0eXBlPSJ0ZXh0L2NzcyI+JiN4YTsJLnN0MHtmaWxsOiM0Mjg1ZjQ7fSYjeGE7CTwvc3R5bGU+JiN4YTsJPHBhdGggY2xhc3M9InN0MCIgZD0iTTEwIDBhMTAgMTAgMCAxIDAgMTAgMTBoMEExMCAxMCAwIDAgMCAxMCAwem0wIDE4YTggOCAwIDAgMS00LjE4LTEuMThsMy41OC0yLjA3aDB2LTQuNUw1LjUxIDh2NC41MmwyLjc1IDEuNTktMy40NiAyQTggOCAwIDAgMSA2LjA4IDN2NGgwTDEwIDkuMjggMTMuOSA3IDEwIDQuNzcgNy4yNCA2LjM2VjIuNDdhOCA4IDAgMCAxIDEwLjMxIDQuNyA4LjEgOC4xIDAgMCAxIC41MSAyLjgzdi4wN0wxNC40NiA4aDBsLTMuOSAyLjI2djQuNTFsMy45LTIuMjVWOS4zNGwzLjQ1IDJBOCA4IDAgMCAxIDEwIDE4eiIvPiYjeGE7PC9zdmc+;" parent="lrcbfFie5i2wsSJ-dCNl-745" vertex="1">
          <mxGeometry width="30" height="30" relative="1" as="geometry">
            <mxPoint x="15" y="15" as="offset" />
          </mxGeometry>
        </mxCell>
        <mxCell id="slp-efSbo1vX8MM6Z89n-711" value="&lt;font style=&quot;color: rgb(102, 102, 102); font-size: 11px; background-color: rgb(204, 255, 230);&quot;&gt;Redis - Cache Server&lt;/font&gt;" style="image;sketch=0;aspect=fixed;html=1;points=[];align=center;fontSize=12;image=img/lib/mscae/Cache_Redis_Product.svg;" parent="1" vertex="1">
          <mxGeometry x="470" y="432.5" width="50" height="42" as="geometry" />
        </mxCell>
        <mxCell id="slp-efSbo1vX8MM6Z89n-726" style="edgeStyle=orthogonalEdgeStyle;rounded=0;orthogonalLoop=1;jettySize=auto;html=1;entryX=1;entryY=0.5;entryDx=0;entryDy=0;endArrow=blockThin;endFill=1;startSize=3;endSize=3;jumpSize=2;strokeColor=#666666;" parent="1" source="slp-efSbo1vX8MM6Z89n-713" target="lrcbfFie5i2wsSJ-dCNl-741" edge="1">
          <mxGeometry relative="1" as="geometry">
            <Array as="points">
              <mxPoint x="730" y="430" />
              <mxPoint x="730" y="430" />
              <mxPoint x="730" y="418" />
            </Array>
          </mxGeometry>
        </mxCell>
        <mxCell id="eOLP80NCPnnx1F5VQtHF-728" style="edgeStyle=orthogonalEdgeStyle;rounded=0;orthogonalLoop=1;jettySize=auto;html=1;strokeColor=#666666;endArrow=openThin;endFill=0;startSize=3;endSize=3;jumpSize=2;" edge="1" parent="1" source="slp-efSbo1vX8MM6Z89n-713" target="eOLP80NCPnnx1F5VQtHF-726">
          <mxGeometry relative="1" as="geometry">
            <Array as="points">
              <mxPoint x="730" y="630" />
            </Array>
          </mxGeometry>
        </mxCell>
        <mxCell id="slp-efSbo1vX8MM6Z89n-713" value="" style="outlineConnect=0;dashed=0;verticalLabelPosition=bottom;verticalAlign=top;align=center;html=1;shape=mxgraph.aws3.vpc_peering;fillColor=#F58536;gradientColor=none;" parent="1" vertex="1">
          <mxGeometry x="719.85" y="443.5" width="19.17" height="20" as="geometry" />
        </mxCell>
        <mxCell id="slp-efSbo1vX8MM6Z89n-732" style="edgeStyle=orthogonalEdgeStyle;rounded=0;orthogonalLoop=1;jettySize=auto;html=1;entryX=0.5;entryY=0;entryDx=0;entryDy=0;endArrow=blockThin;endFill=1;startSize=3;endSize=3;jumpSize=2;strokeColor=#666666;exitX=1;exitY=0.5;exitDx=0;exitDy=0;exitPerimeter=0;" parent="1" source="slp-efSbo1vX8MM6Z89n-713" target="lrcbfFie5i2wsSJ-dCNl-747" edge="1">
          <mxGeometry relative="1" as="geometry">
            <mxPoint x="750" y="448.5" as="sourcePoint" />
            <mxPoint x="760" y="474.5" as="targetPoint" />
            <Array as="points">
              <mxPoint x="760" y="454" />
              <mxPoint x="797" y="454" />
            </Array>
          </mxGeometry>
        </mxCell>
        <mxCell id="slp-efSbo1vX8MM6Z89n-733" style="edgeStyle=orthogonalEdgeStyle;rounded=0;orthogonalLoop=1;jettySize=auto;html=1;entryX=0.5;entryY=1;entryDx=0;entryDy=0;endArrow=blockThin;endFill=1;startSize=3;endSize=3;jumpSize=2;strokeColor=#666666;exitX=1;exitY=0.5;exitDx=0;exitDy=0;exitPerimeter=0;" parent="1" target="lrcbfFie5i2wsSJ-dCNl-743" edge="1">
          <mxGeometry relative="1" as="geometry">
            <mxPoint x="739.02" y="453.59000000000003" as="sourcePoint" />
            <mxPoint x="797.02" y="463.59000000000003" as="targetPoint" />
            <Array as="points">
              <mxPoint x="797" y="454" />
            </Array>
          </mxGeometry>
        </mxCell>
        <mxCell id="slp-efSbo1vX8MM6Z89n-734" style="edgeStyle=orthogonalEdgeStyle;rounded=0;orthogonalLoop=1;jettySize=auto;html=1;entryX=1;entryY=0.5;entryDx=0;entryDy=0;endArrow=blockThin;endFill=1;startSize=3;endSize=3;jumpSize=2;strokeColor=#666666;exitX=0.5;exitY=1;exitDx=0;exitDy=0;exitPerimeter=0;" parent="1" source="slp-efSbo1vX8MM6Z89n-713" edge="1">
          <mxGeometry relative="1" as="geometry">
            <mxPoint x="729.85" y="516" as="sourcePoint" />
            <mxPoint x="719.85" y="490" as="targetPoint" />
            <Array as="points">
              <mxPoint x="729" y="490" />
            </Array>
          </mxGeometry>
        </mxCell>
        <mxCell id="slp-efSbo1vX8MM6Z89n-735" style="edgeStyle=entityRelationEdgeStyle;rounded=0;orthogonalLoop=1;jettySize=auto;html=1;entryX=0;entryY=0.5;entryDx=0;entryDy=0;endArrow=blockThin;endFill=1;startSize=3;endSize=3;jumpSize=2;strokeColor=#666666;exitX=1;exitY=0.5;exitDx=0;exitDy=0;exitPerimeter=0;entryPerimeter=0;startArrow=blockThin;startFill=1;" parent="1" target="slp-efSbo1vX8MM6Z89n-713" edge="1">
          <mxGeometry relative="1" as="geometry">
            <mxPoint x="520" y="453.83" as="sourcePoint" />
            <mxPoint x="577.98" y="445.24" as="targetPoint" />
          </mxGeometry>
        </mxCell>
        <mxCell id="eOLP80NCPnnx1F5VQtHF-713" value="" style="strokeColor=#dddddd;shadow=1;strokeWidth=1;rounded=1;absoluteArcSize=1;arcSize=2;" vertex="1" parent="1">
          <mxGeometry x="598.15" y="540" width="121.69811320754718" height="55.054945054945044" as="geometry" />
        </mxCell>
        <mxCell id="eOLP80NCPnnx1F5VQtHF-714" value="API App&lt;div&gt;Discricio&lt;br&gt;narias&lt;/div&gt;" style="editableCssRules=.*;html=1;fontColor=#999999;shape=image;verticalLabelPosition=middle;verticalAlign=middle;labelPosition=right;align=left;spacingLeft=20;part=1;points=[];imageAspect=0;image=data:image/svg+xml,PHN2ZyB4bWxucz0iaHR0cDovL3d3dy53My5vcmcvMjAwMC9zdmciIHhtbG5zOnY9Imh0dHBzOi8vdmVjdGEuaW8vbmFubyIgd2lkdGg9IjIwIiBoZWlnaHQ9IjIwIiB2aWV3Qm94PSIwIDAgMjAgMjAiPiYjeGE7CTxzdHlsZSB0eXBlPSJ0ZXh0L2NzcyI+JiN4YTsJLnN0MHtmaWxsOiM0Mjg1ZjQ7fSYjeGE7CTwvc3R5bGU+JiN4YTsJPHBhdGggY2xhc3M9InN0MCIgZD0iTTEwIDBhMTAgMTAgMCAxIDAgMTAgMTBoMEExMCAxMCAwIDAgMCAxMCAwem0wIDE4YTggOCAwIDAgMS00LjE4LTEuMThsMy41OC0yLjA3aDB2LTQuNUw1LjUxIDh2NC41MmwyLjc1IDEuNTktMy40NiAyQTggOCAwIDAgMSA2LjA4IDN2NGgwTDEwIDkuMjggMTMuOSA3IDEwIDQuNzcgNy4yNCA2LjM2VjIuNDdhOCA4IDAgMCAxIDEwLjMxIDQuNyA4LjEgOC4xIDAgMCAxIC41MSAyLjgzdi4wN0wxNC40NiA4aDBsLTMuOSAyLjI2djQuNTFsMy45LTIuMjVWOS4zNGwzLjQ1IDJBOCA4IDAgMCAxIDEwIDE4eiIvPiYjeGE7PC9zdmc+;" vertex="1" parent="eOLP80NCPnnx1F5VQtHF-713">
          <mxGeometry width="30" height="30" relative="1" as="geometry">
            <mxPoint x="15" y="15" as="offset" />
          </mxGeometry>
        </mxCell>
        <mxCell id="eOLP80NCPnnx1F5VQtHF-723" style="edgeStyle=orthogonalEdgeStyle;rounded=0;orthogonalLoop=1;jettySize=auto;html=1;entryX=0;entryY=0.5;entryDx=0;entryDy=0;endArrow=blockThin;endFill=1;startSize=3;endSize=3;jumpSize=2;strokeColor=#666666;exitX=0.5;exitY=0;exitDx=0;exitDy=0;exitPerimeter=0;" edge="1" parent="1" source="slp-efSbo1vX8MM6Z89n-713" target="lrcbfFie5i2wsSJ-dCNl-743">
          <mxGeometry relative="1" as="geometry">
            <Array as="points">
              <mxPoint x="729" y="418" />
            </Array>
            <mxPoint x="730" y="440" as="sourcePoint" />
            <mxPoint x="719.85" y="432.5" as="targetPoint" />
          </mxGeometry>
        </mxCell>
        <mxCell id="eOLP80NCPnnx1F5VQtHF-724" style="edgeStyle=orthogonalEdgeStyle;rounded=0;orthogonalLoop=1;jettySize=auto;html=1;entryX=0.5;entryY=0;entryDx=0;entryDy=0;endArrow=blockThin;endFill=1;startSize=3;endSize=3;jumpSize=2;strokeColor=#666666;exitX=0.5;exitY=1;exitDx=0;exitDy=0;exitPerimeter=0;" edge="1" parent="1" source="slp-efSbo1vX8MM6Z89n-713" target="eOLP80NCPnnx1F5VQtHF-713">
          <mxGeometry relative="1" as="geometry">
            <mxPoint x="730.0050000000001" y="510" as="sourcePoint" />
            <mxPoint x="720.4200000000001" y="574.5" as="targetPoint" />
            <Array as="points">
              <mxPoint x="729" y="530" />
              <mxPoint x="659" y="530" />
            </Array>
          </mxGeometry>
        </mxCell>
        <mxCell id="eOLP80NCPnnx1F5VQtHF-725" style="edgeStyle=orthogonalEdgeStyle;rounded=0;orthogonalLoop=1;jettySize=auto;html=1;entryX=0.736;entryY=-0.011;entryDx=0;entryDy=0;endArrow=blockThin;endFill=1;startSize=3;endSize=3;jumpSize=2;strokeColor=#666666;exitX=0.5;exitY=1;exitDx=0;exitDy=0;exitPerimeter=0;entryPerimeter=0;" edge="1" parent="1" target="eOLP80NCPnnx1F5VQtHF-711">
          <mxGeometry relative="1" as="geometry">
            <mxPoint x="729.9799999999999" y="463.59000000000003" as="sourcePoint" />
            <mxPoint x="721.4" y="574.09" as="targetPoint" />
            <Array as="points">
              <mxPoint x="730" y="530" />
              <mxPoint x="826" y="530" />
            </Array>
          </mxGeometry>
        </mxCell>
        <mxCell id="eOLP80NCPnnx1F5VQtHF-726" value="" style="strokeColor=#dddddd;shadow=1;strokeWidth=1;rounded=1;absoluteArcSize=1;arcSize=2;" vertex="1" parent="1">
          <mxGeometry x="736.08" y="604.95" width="121.69811320754718" height="55.054945054945044" as="geometry" />
        </mxCell>
        <mxCell id="eOLP80NCPnnx1F5VQtHF-727" value="API App&lt;div&gt;Parcerias&lt;/div&gt;" style="editableCssRules=.*;html=1;fontColor=#999999;shape=image;verticalLabelPosition=middle;verticalAlign=middle;labelPosition=right;align=left;spacingLeft=20;part=1;points=[];imageAspect=0;image=data:image/svg+xml,PHN2ZyB4bWxucz0iaHR0cDovL3d3dy53My5vcmcvMjAwMC9zdmciIHhtbG5zOnY9Imh0dHBzOi8vdmVjdGEuaW8vbmFubyIgd2lkdGg9IjIwIiBoZWlnaHQ9IjIwIiB2aWV3Qm94PSIwIDAgMjAgMjAiPiYjeGE7CTxzdHlsZSB0eXBlPSJ0ZXh0L2NzcyI+JiN4YTsJLnN0MHtmaWxsOiM0Mjg1ZjQ7fSYjeGE7CTwvc3R5bGU+JiN4YTsJPHBhdGggY2xhc3M9InN0MCIgZD0iTTEwIDBhMTAgMTAgMCAxIDAgMTAgMTBoMEExMCAxMCAwIDAgMCAxMCAwem0wIDE4YTggOCAwIDAgMS00LjE4LTEuMThsMy41OC0yLjA3aDB2LTQuNUw1LjUxIDh2NC41MmwyLjc1IDEuNTktMy40NiAyQTggOCAwIDAgMSA2LjA4IDN2NGgwTDEwIDkuMjggMTMuOSA3IDEwIDQuNzcgNy4yNCA2LjM2VjIuNDdhOCA4IDAgMCAxIDEwLjMxIDQuNyA4LjEgOC4xIDAgMCAxIC41MSAyLjgzdi4wN0wxNC40NiA4aDBsLTMuOSAyLjI2djQuNTFsMy45LTIuMjVWOS4zNGwzLjQ1IDJBOCA4IDAgMCAxIDEwIDE4eiIvPiYjeGE7PC9zdmc+;" vertex="1" parent="eOLP80NCPnnx1F5VQtHF-726">
          <mxGeometry width="30" height="30" relative="1" as="geometry">
            <mxPoint x="15" y="15" as="offset" />
          </mxGeometry>
        </mxCell>
        <mxCell id="eOLP80NCPnnx1F5VQtHF-730" value="" style="sketch=0;html=1;aspect=fixed;strokeColor=none;shadow=0;fillColor=#3B8DF1;verticalAlign=top;labelPosition=center;verticalLabelPosition=bottom;shape=mxgraph.gcp2.files" vertex="1" parent="1">
          <mxGeometry x="290" y="123.96" width="60" height="58.2" as="geometry" />
        </mxCell>
      </root>
    </mxGraphModel>
  </diagram>
</mxfile>
